Format;Avi

File Size:832mb

Video: ID : 0
Format : MPEG-4 Visual
Format profile : Advanced Simple@L5
Format settings, BVOP : Yes
Format settings, QPel : No
Format settings, GMC : No warppoints
Format settings, Matrix : Default (H.263)
Codec ID : XVID
Codec ID/Hint : XviD
Duration : 1h 30mn
Bit rate : 889 Kbps
Width : 720 pixels
Height : 304 pixels
Display aspect ratio : 2.35:1
Frame rate : 23.976 fps
Color space : YUV
Chroma subsampling : 4:2:0
Bit depth : 8 bits
Scan type : Progressive
Bits/(Pixel*Frame) : 0.169
Stream size : 576 MiB (69%)
Writing library : XviD 1.2.1 (UTC 2008-12-04)

Audio: ID : 1
Format : AC-3
Format/Info : Audio Coding 3
Mode extension : CM (complete main)
Codec ID : 2000
Duration : 1h 30mn
Bit rate mode : Constant
Bit rate : 384 Kbps
Channel(s) : 6 channels
Channel positions : Front: L C R, Side: L R, LFE
Sampling rate : 48.0 KHz
Bit depth : 16 bits
Stream size : 249 MiB (30%)
Alignment : Aligned on interleaves
Interleave, duration : 32 ms (0.77 video frame)

Duration:1:30

Release Date:2006

Language:English


Plot: Three teens discover that their neighbor's house is really a living, breathing, scary monster.

Cast:
Ryan Newman Ryan Newman ...
Little Girl (voice)
Steve Buscemi Steve Buscemi ...
Nebbercracker (voice)
Mitchel Musso Mitchel Musso ...
DJ (voice)
Catherine O'Hara Catherine O'Hara ...
Mom (voice)
Fred Willard Fred Willard ...
Dad (voice)
Sam Lerner Sam Lerner ...
Chowder (voice)

screens
 
http://img228.imageshack.us/img228/1774/vlcsnap2010111915h09m37.png 
http://img51.imageshack.us/img51/9246/vlcsnap2010111916h21m34.png 
http://img27.imageshack.us/img27/4061/vlcsnap2010111916h20m32.png 
http://img266.imageshack.us/img266/2389/vlcsnap2010111916h20m45.png 
http://img705.imageshack.us/img705/396/vlcsnap2010111916h22m36.png 
http://img207.imageshack.us/img207/6651/vlcsnap2010111916h23m33.png 
http://img88.imageshack.us/img88/3705/vlcsnap2010111915h10m25.png
